<?xml version="1.0" encoding="utf-8"?>
<!-- Generator: Adobe Illustrator 16.0.0, SVG Export Plug-In . SVG Version: 6.00 Build 0)  -->
<!DOCTYPE svg PUBLIC "-//W3C//DTD SVG 1.1//EN" "http://www.w3.org/Graphics/SVG/1.1/DTD/svg11.dtd">
<svg version="1.1" id="Layer_1" xmlns="http://www.w3.org/2000/svg" xmlns:xlink="http://www.w3.org/1999/xlink" x="0px" y="0px"
	 width="25.602px" height="32px" viewBox="0 0 25.602 32" enable-background="new 0 0 25.602 32" xml:space="preserve">
<g>
	<path d="M23.624,11.898c-1.185-2.369-1.812-5.018-1.812-7.667V1.6h-4.634v2.625c0,1.702-0.263,3.405-0.762,5.037
		c-0.8-2.081-1.223-4.308-1.223-6.535V0h-4.801v2.726c0,2.228-0.415,4.455-1.222,6.535C8.673,7.629,8.41,5.926,8.41,4.224V1.6H3.776
		v2.625c0,2.649-0.627,5.299-1.811,7.667C0.685,14.483,0,17.382,0,20.281V32h6.4h5.812h1.176h5.812h6.4V20.281
		C25.602,17.382,24.916,14.483,23.624,11.898z M24.001,30.4h-4.8v-1.433h2.144l1.984-1.985v-6.726l-1.984-1.984h-2.195
		c-0.128-1.779-0.499-3.54-1.095-5.223H22.4c1.044,2.253,1.601,4.743,1.601,7.227V30.4z M14.989,30.4h-0.8h-0.801h-1.176h-0.801
		h-0.8H8.001v-1.479v-2.266v-6.074v-0.909c0-0.435,0.019-0.869,0.044-1.305c0.128-1.715,0.493-3.417,1.094-5.03
		c0.128-0.339,0.263-0.678,0.41-1.011C9.601,12.217,9.646,12.109,9.696,12h0.583h5.036h0.584c0.051,0.109,0.103,0.217,0.146,0.327
		c0.147,0.333,0.281,0.672,0.41,1.011c0.601,1.613,0.972,3.315,1.094,5.03c0.031,0.436,0.045,0.87,0.045,1.305v0.909v6.074v2.266
		V30.4H14.989z M1.601,20.281c0-2.482,0.55-4.972,1.6-7.225h4.346c-0.596,1.684-0.967,3.443-1.095,5.223H4.257l-1.984,1.983v6.727
		l1.984,1.983H6.4V30.4h-4.8V20.281z M6.4,27.366H4.922l-1.05-1.05v-5.4l1.05-1.05H6.4V27.366z M5.28,6.233h1.652
		c0.192,1.76,0.634,3.495,1.306,5.133c-0.013,0.032-0.026,0.057-0.039,0.09H3.943C4.634,9.792,5.089,8.025,5.28,6.233z M5.39,4.224
		V3.2h1.433v1.024c0,0.134,0,0.269,0.007,0.403H5.39C5.39,4.5,5.39,4.358,5.39,4.224z M11.893,4.8h1.824
		c0.204,1.92,0.69,3.821,1.44,5.6h-4.705C11.201,8.621,11.688,6.72,11.893,4.8z M12,2.726V1.6h1.602v1.126
		c0,0.16,0,0.314,0.005,0.474h-1.611C12,3.04,12,2.886,12,2.726z M20.68,19.872l1.05,1.05v5.402l-1.05,1.049h-1.479v-7.501H20.68z
		 M17.371,11.367c0.671-1.639,1.113-3.373,1.305-5.133h1.652c0.191,1.792,0.646,3.559,1.338,5.223h-4.257
		C17.396,11.424,17.383,11.393,17.371,11.367z M18.778,4.224V3.2h1.434v1.024c0,0.134,0,0.269,0.007,0.403h-1.44
		C18.778,4.5,18.778,4.358,18.778,4.224z"/>
	<path d="M15.144,18.011L14.734,17.6h-0.339h-0.808H12.02h-0.806h-0.339l-0.411,0.411l-1.389,1.382l-0.275,0.275v7.066l0.697,0.696
		l1.114,1.113l0.255,0.257h0.545h0.801h1.176h0.801h0.545l0.255-0.257l1.115-1.113l0.696-0.696v-7.066l-0.274-0.275L15.144,18.011z
		 M15.201,26.067l-0.212,0.211l-0.8,0.8L14.068,27.2h-0.68h-1.176h-0.68l-0.121-0.122l-0.8-0.8l-0.211-0.211v-5.735l0.211-0.21
		l0.776-0.775l0.146-0.147h0.647h1.24h0.647l0.146,0.147l0.775,0.775l0.212,0.21V26.067z"/>
</g>
</svg>
